<?xml version="1.0" encoding="UTF-8" standalone="no" ?>
<!DOCTYPE svg PUBLIC "-//W3C//DTD SVG 1.1//EN" "http://www.w3.org/Graphics/SVG/1.1/DTD/svg11.dtd">
<svg xmlns="http://www.w3.org/2000/svg" xmlns:xlink="http://www.w3.org/1999/xlink" version="1.1" width="400" height="400" viewBox="0 0 400 400" xml:space="preserve">
<desc>Created with Fabric.js 3.6.2</desc>
<defs>
</defs>
<g transform="matrix(0.73 0 0 0.73 200 200)"  >
<path style="stroke: none; stroke-width: 1; stroke-dasharray: none; stroke-linecap: butt; stroke-dashoffset: 0; stroke-linejoin: round; stroke-miterlimit: 2; fill: rgb(35,89,156); fill-rule: nonzero; opacity: 1;"  transform=" translate(-256, -256)" d="M 374.244 285.825 l 14.105 -91.961 l -88.233 0 l 0 -59.677 c 0 -25.159 12.325 -49.682 51.845 -49.682 l 40.116 0 l 0 -78.291 c 0 0 -36.407 -6.214 -71.213 -6.214 c -72.67 0 -120.165 44.042 -120.165 123.775 l 0 70.089 l -80.777 0 l 0 91.961 l 80.777 0 l 0 222.31 c 16.197 2.541 32.798 3.865 49.709 3.865 c 16.911 0 33.511 -1.324 49.708 -3.865 l 0 -222.31 l 74.128 0 Z" stroke-linecap="round" />
</g>
</svg>