<?xml version="1.0" encoding="utf-8"?>
<!-- Generator: Adobe Illustrator 22.1.0, SVG Export Plug-In . SVG Version: 6.00 Build 0)  -->
<svg version="1.1" id="Слой_1" xmlns="http://www.w3.org/2000/svg" xmlns:xlink="http://www.w3.org/1999/xlink" x="0px" y="0px"
	 viewBox="0 0 120 120.3" style="enable-background:new 0 0 120 120.3;" xml:space="preserve">
<style type="text/css">
	.st0{fill:#86878B;}
</style>
<desc>Created with Fabric.js 3.6.2</desc>
<g id="Layer_1" transform="matrix(0.39 0 0 0.39 180.11 200)">
	<path class="st0" d="M-307.4-339.2c-8.1-5.7-23.5-19.6-23.5-27.7c0-9.6,2.7-14.3,17.1-25.5c14.7-11.5,25.2-30.4,25.2-49.3
		c0-22.4-10-36.2-28.8-54.2h28.3l20-9c0,0-66.9,0-89.2,0c-40,0-77.6,30.3-77.6,65.3c0,35.9,27.3,64.8,68,64.8c2.8,0,5.6-0.1,8.3-0.3
		c-2.6,5-4.5,10.7-4.5,16.6c0,10,5.4,18.1,12.1,24.7c-5.1,0-10.1,0.1-15.5,0.1c-49.6,0-87.7,31.5-87.7,64.3
		c0,32.2,41.8,52.4,91.3,52.4c56.5,0,87.7-32.1,87.7-64.3C-276.2-307-283.8-322.5-307.4-339.2z M-355-383.9
		c-23-0.7-44.8-25.7-48.8-55.9c-4-30.2,11.4-53.3,34.4-52.6c23,0.7,44.8,24.9,48.8,55.1C-316.6-407.1-332.1-383.2-355-383.9z
		 M-364-231.2c-34.2,0-59-21.7-59-47.7c0-25.5,30.7-46.8,64.9-46.4c8,0.1,15.4,1.4,22.2,3.6c18.6,12.9,31.9,20.3,35.7,35
		c0.7,3,1.1,6.1,1.1,9.2C-299.1-251.5-315.9-231.2-364-231.2z"/>
</g>
<g id="Layer_1_1_" transform="matrix(0.39 0 0 0.39 235.16 196.48)">
	<polygon class="st0" points="-353.1,-369.9 -353.1,-414.9 -371.1,-414.9 -371.1,-369.9 -416.1,-369.9 -416.1,-351.9 -371.1,-351.9 
		-371.1,-306.9 -353.1,-306.9 -353.1,-351.9 -308.1,-351.9 -308.1,-369.9 	"/>
</g>
</svg>
