<?xml version="1.0" encoding="utf-8"?>
<!-- Generator: Adobe Illustrator 22.1.0, SVG Export Plug-In . SVG Version: 6.00 Build 0)  -->
<svg version="1.1" id="Слой_1" xmlns="http://www.w3.org/2000/svg" xmlns:xlink="http://www.w3.org/1999/xlink" x="0px" y="0px"
	 viewBox="0 0 200 200" style="enable-background:new 0 0 200 200;" xml:space="preserve">
<style type="text/css">
	.st0{fill:#86878B;}
</style>
<desc>Created with Fabric.js 3.6.2</desc>
<g id="Layer_1" transform="matrix(3.33 0 0 3.33 200 200)">
	<path class="st0" d="M-20.8-37.5L-20.8-37.5c0.5,0,1,0,1.5,0c0.6,0,1.2-0.6,1.2-1.2c0-1,0-1.9,0-2.9c0-0.7-0.5-1.2-1.2-1.2
		c-1,0-1.9,0-2.9,0c-0.7,0-1.2,0.6-1.2,1.2c0,1,0,1.9,0,2.9c0,0.1,0,0.3,0.1,0.4c0.2,0.5,0.6,0.8,1.2,0.8
		C-21.7-37.5-21.2-37.5-20.8-37.5z M-30-36.2c-3.4,0-6.1,2.7-6.2,6.1c0,3.5,2.7,6.2,6,6.3c3.5,0.1,6.2-2.7,6.3-6
		C-23.8-33.4-26.6-36.2-30-36.2z M-42-32.9L-42-32.9c0,4.6,0,9.1,0,13.6c0,0.6,0.6,1.2,1.2,1.2c7.2,0,14.3,0,21.5,0
		c0.7,0,1.2-0.6,1.2-1.2c0-4.5,0-9,0-13.5v-0.1H-21c0.4,1.3,0.5,2.7,0.4,4s-0.6,2.6-1.3,3.8s-1.6,2.1-2.8,2.9
		c-2.9,2-6.8,2.2-9.9,0.4c-1.6-0.9-2.8-2.1-3.7-3.7c-1.3-2.4-1.5-4.9-0.7-7.5C-40-32.9-41-32.9-42-32.9z M-17.8-14.8
		c0.2,0,0.3,0,0.5-0.1c1.2-0.3,2.3-1.3,2.5-2.6c0-0.1,0-0.3,0.1-0.4v-24.4c0-0.1,0-0.3-0.1-0.4c-0.3-1.4-1.4-2.4-2.8-2.6
		c-0.1,0-0.1,0-0.2,0h-24.5c-0.1,0-0.3,0-0.4,0.1c-1.4,0.3-2.4,1.4-2.5,2.8c0,0.1,0,0.1,0,0.2v24.5c0,0.2,0,0.3,0.1,0.5
		c0.3,1.3,1.4,2.3,2.8,2.5c0.1,0,0.1,0,0.2,0H-17.8z M-30,0c-16.6,0-30-13.4-30-30c0-16.6,13.4-30,30-30S0-46.6,0-30
		C0-13.5-13.5,0-30,0z"/>
</g>
</svg>
