<?xml version="1.0" encoding="utf-8"?>
<!-- Generator: Adobe Illustrator 22.1.0, SVG Export Plug-In . SVG Version: 6.00 Build 0)  -->
<svg version="1.1" id="Слой_1" xmlns="http://www.w3.org/2000/svg" xmlns:xlink="http://www.w3.org/1999/xlink" x="0px" y="0px"
	 viewBox="0 0 200 200" style="enable-background:new 0 0 200 200;" xml:space="preserve">
<style type="text/css">
	.st0{fill:#86878B;}
</style>
<desc>Created with Fabric.js 3.6.2</desc>
<g id="Pinterrest" transform="matrix(3.33 0 0 3.33 200 200)">
	<path class="st0" d="M0-30C0-13.4-13.4,0-30,0c-2.8,0-5.4-0.4-8-1.1l3-5.9l1.7-9.5c0,0,1.8,3.7,7,3.6c5.3-0.1,9.8-2.2,13.9-10.2
		c4.1-7.9,0.6-22.3-11.9-25.2s-23.1,4.4-24.8,14.8C-50.7-23.1-42.5-19-42.5-19l1.2-4.4c0,0-5.1-6.4-0.6-14s16.1-8.4,21.4-2.3
		s2.3,16.6-1.2,19.8c-3.5,3.2-7,2.3-8.4,1.2s-2.1-3.1-0.8-7.2s2.5-6.9,1.5-9.6s-5.3-2.3-6.7-0.5s-3.1,5-1.2,10.1L-42-9v6.5
		C-52.6-7.1-60-17.7-60-30c0-16.6,13.4-30,30-30S0-46.6,0-30z"/>
</g>
</svg>
