<?xml version="1.0" encoding="utf-8"?>
<!-- Generator: Adobe Illustrator 22.1.0, SVG Export Plug-In . SVG Version: 6.00 Build 0)  -->
<svg version="1.1" id="Слой_1" xmlns="http://www.w3.org/2000/svg" xmlns:xlink="http://www.w3.org/1999/xlink" x="0px" y="0px"
	 viewBox="0 0 200 200" style="enable-background:new 0 0 200 200;" xml:space="preserve">
<style type="text/css">
	.st0{fill:#86878B;}
</style>
<desc>Created with Fabric.js 3.6.2</desc>
<g id="Oval_213" transform="matrix(12.5 0 0 12.5 200 200)">
	<path class="st0" d="M-9,0c0-3.9-3.1-7-7-7v-3c5.5,0,10,4.5,10,10H-9z M-14,0c-1.1,0-2-0.9-2-2s0.9-2,2-2s2,0.9,2,2S-12.9,0-14,0z
		 M-3,0c0-7.2-5.8-13-13-13v-3C-7.2-16,0-8.8,0,0H-3z"/>
</g>
</svg>
