<?xml version="1.0" encoding="utf-8"?>
<!-- Generator: Adobe Illustrator 22.1.0, SVG Export Plug-In . SVG Version: 6.00 Build 0)  -->
<svg version="1.1" id="Слой_1" xmlns="http://www.w3.org/2000/svg" xmlns:xlink="http://www.w3.org/1999/xlink" x="0px" y="0px"
	 viewBox="0 0 200 200" style="enable-background:new 0 0 200 200;" xml:space="preserve">
<style type="text/css">
	.st0{fill:#FF9800;}
</style>
<desc>Created with Fabric.js 3.6.2</desc>
<g id="Layer_1" transform="matrix(12.5 0 0 12.5 168.75 193.75)">
	<path class="st0" d="M-5.5-11v1.9l1.5,1l1.5-1V-11c0-1.9-1.6-3.5-3.5-3.5s-3.5,1.6-3.5,3.5v6c0,0.3-0.2,0.5-0.5,0.5
		s-0.5-0.2-0.5-0.5v-2.5h-3V-5c0,1.9,1.6,3.5,3.5,3.5S-6.5-3.1-6.5-5v-6c0-0.3,0.2-0.5,0.5-0.5S-5.5-11.3-5.5-11z"/>
</g>
<g id="Layer_1_1_" transform="matrix(12.5 0 0 12.5 243.75 235.01)">
	<path class="st0" d="M-7.5-10.8v2.5C-7.5-8-7.7-7.8-8-7.8S-8.5-8-8.5-8.3v-2.9l-1.2,0.8c-0.2,0.1-0.4,0.1-0.6,0l-1.2-0.8v2.9
		c0,1.9,1.6,3.5,3.5,3.5s3.5-1.6,3.5-3.5v-2.5H-7.5z"/>
</g>
</svg>
