<?xml version="1.0" encoding="utf-8"?>
<!-- Generator: Adobe Illustrator 22.1.0, SVG Export Plug-In . SVG Version: 6.00 Build 0)  -->
<svg version="1.1" id="Слой_1" xmlns="http://www.w3.org/2000/svg" xmlns:xlink="http://www.w3.org/1999/xlink" x="0px" y="0px"
	 viewBox="0 0 200 200" style="enable-background:new 0 0 200 200;" xml:space="preserve">
<style type="text/css">
	.st0{fill:#55ACEE;}
</style>
<desc>Created with Fabric.js 3.6.2</desc>
<g id="Layer_1" transform="matrix(7.69 0 0 7.69 200 200)">
	<path class="st0" d="M-0.1-21.1c-1,0.4-2,0.7-3.1,0.8c1.1-0.7,1.9-1.7,2.3-3c-1,0.6-2.2,1.1-3.4,1.3c-1-1-2.4-1.7-3.9-1.7
		c-2.9,0-5.3,2.4-5.3,5.3c0,0.4,0,0.8,0.1,1.2c-4.4-0.2-8.4-2.3-11-5.6c-0.5,0.8-0.7,1.7-0.7,2.7c0,1.9,0.9,3.5,2.4,4.4
		c-0.9,0-1.7-0.3-2.4-0.7c0,0,0,0,0,0.1c0,2.6,1.8,4.7,4.3,5.2c-0.4,0.1-0.9,0.2-1.4,0.2c-0.3,0-0.7,0-1-0.1c0.7,2.1,2.6,3.7,5,3.7
		C-20-5.9-22.3-5-24.8-5c-0.4,0-0.9,0-1.3-0.1c2.4,1.5,5.2,2.4,8.2,2.4c9.8,0.3,15.2-7.9,15.2-14.9c0-0.2,0-0.5,0-0.7
		C-1.7-19.1-0.8-20-0.1-21.1z"/>
</g>
</svg>
